<svg xmlns="http://www.w3.org/2000/svg" xmlns:xlink="http://www.w3.org/1999/xlink" version="1.1" width="612" height="612" style="" xml:space="preserve"><rect id="backgroundrect" width="100%" height="100%" x="0" y="0" fill="none" stroke="none"/>
















<g class="currentLayer" style=""><title>Layer 1</title><g id="svg_1" class="" transform="rotate(90 306,306.00000000000006) ">
	<g id="Right">
		<g id="svg_2">
			<path d="M277.58,179.679l-0.057,0.077c-5.125-4.705-11.857-7.631-19.335-7.631c-15.835,0-28.688,12.852-28.688,28.688     c0,8.377,3.634,15.835,9.352,21.076l-0.057,0.077L330.48,306l-91.686,84.055l0.057,0.076c-5.718,5.221-9.352,12.68-9.352,21.057     c0,15.836,12.852,28.688,28.688,28.688c7.478,0,14.21-2.926,19.335-7.611l0.057,0.076l114.75-105.188     c5.91-5.451,9.295-13.101,9.295-21.152s-3.385-15.702-9.295-21.152L277.58,179.679z M306,0C137.012,0,0,137.012,0,306     s137.012,306,306,306s306-137.012,306-306S474.988,0,306,0z M306,554.625C168.912,554.625,57.375,443.088,57.375,306     S168.912,57.375,306,57.375S554.625,168.912,554.625,306S443.088,554.625,306,554.625z" fill="#0F1626" id="svg_3"/>
		</g>
	</g>
</g><g id="svg_4">
</g><g id="svg_5">
</g><g id="svg_6">
</g><g id="svg_7">
</g><g id="svg_8">
</g><g id="svg_9">
</g><g id="svg_10">
</g><g id="svg_11">
</g><g id="svg_12">
</g><g id="svg_13">
</g><g id="svg_14">
</g><g id="svg_15">
</g><g id="svg_16">
</g><g id="svg_17">
</g><g id="svg_18">
</g></g></svg>