<svg width="58" height="54" viewBox="0 0 58 54" version="1.1" xmlns="http://www.w3.org/2000/svg" xmlns:xlink="http://www.w3.org/1999/xlink">
<title>camisa</title>
<desc>Created using Figma</desc>
<g id="Canvas" transform="translate(-4191 459)">
<g id="camisa">
<use xlink:href="#path0_fill" transform="translate(4191.68 -458.032)" fill="#0F1626"/>
</g>
</g>
<defs>
<path id="path0_fill" fill-rule="evenodd" d="M 56.8624 14.2011L 49.5069 5.30023C 46.7232 1.93176 42.626 0 38.2657 0L 18.8589 0C 14.4986 0 10.4009 1.93176 7.61774 5.30023L 0.262268 14.2011C 0.0366822 14.4736 -0.0497435 14.8356 0.0278932 15.1809C 0.10553 15.5262 0.337952 15.816 0.657776 15.9654L 11.2828 20.9267L 11.2828 51.2497C 11.2828 51.8804 11.7921 52.3916 12.4205 52.3916L 44.9273 52.3916C 45.5557 52.3916 46.065 51.8804 46.065 51.2497L 46.065 20.9205L 56.4742 15.9616C 56.7916 15.8104 57.0215 15.5207 57.0972 15.1765C 57.1734 14.8323 57.0865 14.4723 56.8624 14.2011ZM 34.648 2.28387C 34.0323 5.10419 31.5518 7.17435 28.5621 7.17435C 25.5723 7.17435 23.0919 5.10428 22.4766 2.28387L 34.648 2.28387ZM 46.065 18.3922L 46.065 17.2839C 46.065 16.6533 45.5557 16.1421 44.9273 16.1421C 44.2989 16.1421 43.7891 16.6533 43.7891 17.2839L 43.7891 50.1077L 13.5582 50.1077L 13.5582 17.2839C 13.5582 16.6533 13.0489 16.1421 12.4205 16.1421C 11.7921 16.1421 11.2828 16.6533 11.2828 17.2839L 11.2828 18.4076L 2.95563 14.5192L 9.3692 6.75797C 11.7193 3.91461 15.1778 2.28366 18.8589 2.28366L 20.1622 2.28366C 20.4517 4.08658 21.3052 5.74649 22.6309 7.04077C 24.2276 8.59961 26.334 9.4581 28.5621 9.4581C 30.7906 9.4581 32.897 8.59961 34.4937 7.04077C 35.8189 5.74661 36.6724 4.08658 36.962 2.28366L 38.2652 2.28366C 41.9464 2.28366 45.4048 3.91437 47.7545 6.75784L 54.1758 14.528L 46.065 18.3922ZM 16.5538 29.0333C 15.9254 29.0333 15.4161 29.5445 15.4161 30.1752L 15.4161 47.4382C 15.4161 48.0689 15.9254 48.5801 16.5538 48.5801C 17.1827 48.5801 17.692 48.0689 17.692 47.4382L 17.692 30.1752C 17.692 29.5445 17.1827 29.0333 16.5538 29.0333ZM 15.4161 23.4494C 15.4161 22.8187 15.9254 22.3075 16.5538 22.3075C 17.1827 22.3075 17.692 22.8187 17.692 23.4494L 17.692 25.9156C 17.692 26.5462 17.1827 27.0574 16.5538 27.0574C 15.9254 27.0574 15.4161 26.5462 15.4161 25.9156L 15.4161 23.4494Z"/>
</defs>
</svg>
