<svg width="54" height="54" viewBox="0 0 65 65" version="1.1" xmlns="http://www.w3.org/2000/svg" xmlns:xlink="http://www.w3.org/1999/xlink">
<title>Union</title>
<desc>Created using Figma</desc>
<g id="Canvas" transform="translate(-4360 270)">
<g id="Union">
<use xlink:href="#path0_fill" transform="translate(4360.19 -269.507)" fill="#0F1626"/>
</g>
</g>
<defs>
<path id="path0_fill" fill-rule="evenodd" d="M 61.9614 11.2018L 61.9614 53.1205C 63.3257 54.3448 64.0981 56.0547 64.0981 57.89C 64.0981 61.4375 61.2231 64.3223 57.688 64.3223C 55.8594 64.3223 54.1543 63.5471 52.9351 62.1782L 11.1626 62.1782C 9.94287 63.5471 8.23877 64.3223 6.40967 64.3223C 2.875 64.3223 0 61.4375 0 57.89C 0 56.0547 0.772461 54.3448 2.13672 53.1205L 2.13672 11.2018C 0.772461 9.97748 0 8.26755 0 6.43222C 0 2.88483 2.875 0 6.40967 0C 8.23877 0 9.94287 0.775146 11.1626 2.1441L 52.9351 2.1441C 54.1543 0.775146 55.8594 0 57.688 0C 61.2231 0 64.0981 2.88483 64.0981 6.43222C 64.0981 8.26755 63.3257 9.97748 61.9614 11.2018ZM 54.291 60.4587C 55.1147 61.5522 56.3525 62.1782 57.688 62.1782C 60.0449 62.1782 61.9614 60.255 61.9614 57.8902C 61.9614 56.5501 61.3374 55.3076 60.248 54.4811C 59.981 54.2785 59.8247 53.9621 59.8247 53.6256L 59.8247 10.6968C 59.8247 10.3602 59.981 10.0439 60.248 9.84131C 61.3374 9.0148 61.9614 7.77231 61.9614 6.43222C 61.9614 4.06738 60.0449 2.1441 57.6885 2.1441C 56.353 2.1441 55.1147 2.77026 54.291 3.86374C 54.0894 4.13071 53.7739 4.28824 53.4385 4.28824L 10.6597 4.28824C 10.3242 4.28824 10.0088 4.13071 9.80713 3.86374C 8.9834 2.77014 7.74512 2.1441 6.40967 2.1441C 4.05322 2.1441 2.13672 4.06726 2.13672 6.43222C 2.13672 7.77231 2.76025 9.0148 3.8501 9.84131C 4.11621 10.0439 4.27344 10.3602 4.27344 10.6968L 4.27344 53.6254C 4.27344 53.9621 4.11621 54.2783 3.8501 54.481C 2.76025 55.3075 2.13672 56.55 2.13672 57.89C 2.13672 60.2549 4.05322 62.1782 6.40967 62.1782C 7.74512 62.1782 8.9834 61.5522 9.80713 60.4587C 10.0088 60.1917 10.3242 60.0342 10.6597 60.0342L 53.4385 60.0342C 53.7739 60.0342 54.0889 60.1917 54.291 60.4587ZM 56.6196 6.43225L 7.47803 6.43225C 6.88818 6.43225 6.40967 6.91254 6.40967 7.50424L 6.40967 56.8179C 6.40967 57.2992 6.72998 57.7217 7.19287 57.8504C 7.65332 57.979 8.14648 57.7828 8.39355 57.3701C 8.45557 57.2682 14.5845 47.1696 21.3657 47.1696C 28.2754 47.1696 32.3232 51.1061 32.3618 51.1436C 32.6147 51.3977 32.978 51.5071 33.3296 51.4352C 33.6802 51.3645 33.9727 51.12 34.1084 50.7866C 34.2739 50.3761 38.3423 40.7373 52.3467 40.7373C 52.937 40.7373 53.4146 40.257 53.4146 39.6653C 53.4146 39.0735 52.937 38.5933 52.3467 38.5933C 49.4888 38.5933 47.022 38.9771 44.8687 39.5849L 44.8687 36.3409C 47.3032 35.8424 49.1416 33.6779 49.1416 31.0889C 49.1416 30.9496 49.0796 17.1525 43.7998 17.1525C 38.5205 17.1525 38.4585 30.9497 38.4585 31.0892C 38.4585 33.6781 40.2974 35.8426 42.7319 36.3411L 42.7319 40.2905C 36.8892 42.5846 33.9492 46.6263 32.769 48.6985C 30.9731 47.351 27.0503 45.0257 21.3657 45.0257C 15.8994 45.0257 11.1133 50.0708 8.54639 53.4059L 8.54639 8.57635L 55.5513 8.57635L 55.5513 55.7461L 11.751 55.7461C 11.1616 55.7461 10.6831 56.2264 10.6831 56.8181C 10.6831 57.4098 11.1616 57.8901 11.751 57.8901L 56.6196 57.8901C 57.2104 57.8901 57.688 57.4098 57.688 56.8181L 57.688 7.50424C 57.688 6.91254 57.2104 6.43225 56.6196 6.43225ZM 40.5952 31.0892C 40.5952 25.7483 42.0249 19.2967 43.8003 19.2967C 45.5757 19.2967 47.0049 25.7483 47.0049 31.0892C 47.0049 32.8623 45.5669 34.3053 43.8003 34.3053C 42.0332 34.3053 40.5952 32.8623 40.5952 31.0892ZM 30.9819 23.5848C 31.5713 23.5848 32.0503 23.1045 32.0503 22.5128C 32.0503 21.9211 31.5713 21.4408 30.9819 21.4408L 27.668 21.4408C 27.5293 20.7579 27.2578 20.1243 26.8862 19.5626L 29.2344 17.2052C 29.6509 16.786 29.6509 16.1074 29.2329 15.6882C 28.8164 15.2711 28.1392 15.2701 27.7227 15.6892L 25.3755 18.0455C 24.8159 17.6724 24.1841 17.4002 23.5029 17.2608L 23.5015 13.9343C 23.5015 13.3415 23.0229 12.8623 22.4336 12.8623C 21.8428 12.8634 21.3652 13.3426 21.3652 13.9354L 21.3662 17.2608C 20.687 17.4002 20.0542 17.6725 19.4956 18.0445L 17.1445 15.6892C 16.7266 15.2711 16.0503 15.2711 15.6338 15.6904C 15.2173 16.1096 15.2173 16.7881 15.6348 17.2062L 17.9839 19.5604C 17.6123 20.1232 17.3398 20.7567 17.2007 21.4407L 13.8882 21.4407C 13.2983 21.4407 12.8198 21.9209 12.8198 22.5126C 12.8198 23.1044 13.2983 23.5847 13.8882 23.5847L 17.2007 23.5847C 17.3398 24.2676 17.6113 24.9021 17.9829 25.4639L 15.6357 27.8181C 15.2178 28.2362 15.2178 28.9159 15.6357 29.334C 15.8442 29.5441 16.1177 29.648 16.3911 29.648C 16.6646 29.648 16.937 29.544 17.1465 29.334L 19.4932 26.9798C 20.0532 27.3529 20.6855 27.6252 21.3662 27.7645L 21.3662 31.0889C 21.3662 31.6806 21.8447 32.1609 22.4346 32.1609C 23.0239 32.1609 23.5024 31.6806 23.5024 31.0889L 23.5024 27.7645C 24.1831 27.6252 24.8145 27.3528 25.374 26.9798L 27.7222 29.3351C 27.9316 29.5441 28.2041 29.6482 28.4775 29.6482C 28.751 29.6482 29.0244 29.5441 29.2339 29.3341C 29.6509 28.916 29.6509 28.2363 29.2329 27.8182L 26.8857 25.4641C 27.2578 24.9024 27.5288 24.2677 27.668 23.5848L 30.9819 23.5848ZM 25.6392 22.5095C 25.6372 24.287 24.2026 25.7268 22.4375 25.7289C 20.665 25.7268 19.2295 24.2849 19.2295 22.5128C 19.2295 20.7396 20.6675 19.2967 22.4346 19.2967C 24.2002 19.2967 25.6372 20.7375 25.6392 22.5095Z"/>
</defs>
</svg>
