<svg width="55" height="54" viewBox="0 0 55 54" version="1.1" xmlns="http://www.w3.org/2000/svg" xmlns:xlink="http://www.w3.org/1999/xlink">
<title>tea-cup</title>
<desc>Created using Figma</desc>
<g id="Canvas" transform="translate(-4365 459)">
<g id="tea-cup">
<use xlink:href="#path0_fill" transform="translate(4365.2 -458.032)" fill="#0F1626"/>
</g>
</g>
<defs>
<path id="path0_fill" fill-rule="evenodd" d="M 51.3711 44.2152L 40.9312 44.2152C 44.332 40.6964 46.064 36.4147 46.064 31.5535L 46.064 29.0423C 50.0664 28.2566 54.0747 22.8632 54.0747 15.0733C 54.0747 8.95358 50.9102 8.12646 46.064 8.04657L 46.064 1.00494C 46.064 0.402008 45.6631 0 45.0625 0L 9.01221 0C 8.41162 0 8.01123 0.402008 8.01123 1.00494L 8.01123 31.5535C 8.01123 36.4146 9.74316 40.6964 13.1436 44.2152L 2.60352 44.2152C 1.20166 44.2152 0 45.3205 0 46.8278C 0 48.0337 0.80127 48.938 2.30322 49.2396L 14.9204 50.2444C 15.4214 50.2444 15.5215 50.4454 15.6216 50.6464C 16.1226 51.6514 17.1235 52.2542 18.2251 52.2542L 34.8481 52.2542C 35.9497 52.2542 36.9512 51.6513 37.2515 50.6464C 37.4517 50.345 37.6523 50.2444 37.9526 50.2444L 51.6714 49.2396L 51.7715 49.2396C 53.1733 48.9382 53.9746 48.0337 53.9746 46.8278C 53.9746 45.421 52.873 44.2152 51.3711 44.2152ZM 52.0723 15.0733C 52.0723 20.8012 49.2681 26.1271 46.064 27.0316L 46.064 10.0488C 50.8706 10.1493 52.0723 10.8527 52.0723 15.0733ZM 35.0483 9.44586L 38.0527 12.4605L 38.0527 20.0977L 32.0444 20.0977L 32.0444 12.4605L 35.0483 9.44586ZM 10.0137 31.5535L 10.0137 2.00967L 34.0469 2.00967L 34.0469 7.63702L 30.3418 11.3551C 30.1416 11.556 30.0415 11.7571 30.0415 12.0585L 30.0415 21.1025C 30.0415 21.7054 30.4424 22.1074 31.043 22.1074L 39.0542 22.1074C 39.6548 22.1074 40.0557 21.7054 40.0557 21.1025L 40.0557 12.0585C 40.0557 11.7571 39.9556 11.556 39.7554 11.3551L 36.0503 7.63702L 36.0503 2.00967L 44.1611 2.00967L 44.1611 8.03903L 44.061 8.03903L 44.061 29.1417L 44.1611 29.1417L 44.1611 31.5535C 44.1611 36.4774 42.0586 40.899 38.0527 44.2152L 16.1226 44.2152C 12.1167 40.899 10.0137 36.4774 10.0137 31.5535ZM 51.6714 47.2298L 38.0527 48.2347C 37.0513 48.3352 36.25 48.8377 35.7495 49.7421C 35.5493 50.0435 35.2485 50.2445 34.9482 50.2445L 18.2251 50.2445C 17.9248 50.2445 17.6245 50.0436 17.4243 49.7421C 16.9233 48.8377 16.1226 48.3352 15.1211 48.2347L 2.50342 47.2298C 2.00293 47.1293 2.00293 46.9284 2.00293 46.8278C 2.00293 46.5264 2.30322 46.2249 2.60352 46.2249L 15.7217 46.2249L 38.353 46.2249L 51.5713 46.2249C 51.8716 46.2249 52.1724 46.5263 52.1724 46.8278C 52.1724 46.9284 52.1724 47.1293 51.6714 47.2298ZM 14.02 31.1514L 14.02 22.1074C 14.02 21.5045 13.6191 21.1025 13.0186 21.1025C 12.418 21.1025 12.0171 21.5045 12.0171 22.1074L 12.0171 31.1514C 12.0171 35.2715 13.6191 39.291 16.3232 41.9037C 16.5234 42.1047 16.8237 42.2052 17.0239 42.2052C 17.3242 42.2052 17.5249 42.1047 17.7251 41.9037C 18.1255 41.5018 18.1255 40.8989 17.7251 40.4969C 15.4219 38.2862 14.02 34.7691 14.02 31.1514ZM 14.02 17.083C 14.02 17.6859 13.6191 18.0879 13.0186 18.0879C 12.4175 18.0879 12.0171 17.6859 12.0171 17.083L 12.0171 11.0536C 12.0171 10.4507 12.418 10.0487 13.0186 10.0487C 13.6191 10.0487 14.02 10.4507 14.02 11.0536L 14.02 17.083Z"/>
</defs>
</svg>
