<svg width="36" height="35" viewBox="0 0 36 35" version="1.1" xmlns="http://www.w3.org/2000/svg" xmlns:xlink="http://www.w3.org/1999/xlink">
<title>&#192;&#230;&#157;</title>
<desc>Created using Figma</desc>
<g id="Canvas" transform="translate(-5378 -603)">
<g id="flicker">
<use xlink:href="#path0_fill" transform="translate(5378.67 603)" fill="#EEECE4"/>
</g>
</g>
<defs>
<path id="path0_fill" fill-rule="evenodd" d="M 17.4835 0C 7.82824 0 0 7.82829 0 17.4836C 0 27.1389 7.82824 34.9672 17.4835 34.9672C 27.1388 34.9672 34.967 27.1389 34.967 17.4836C 34.967 7.82609 27.1388 0 17.4835 0ZM 11.0495 21.8627C 8.59964 21.8627 6.61523 19.8785 6.61523 17.4287C 6.61523 14.9789 8.59958 12.9947 11.0495 12.9947C 13.4994 12.9947 15.4838 14.9789 15.4838 17.4287C 15.4838 19.8785 13.4994 21.8627 11.0495 21.8627ZM 23.9631 21.8627C 21.5132 21.8627 19.5288 19.8785 19.5288 17.4287C 19.5288 14.9789 21.5131 12.9947 23.9631 12.9947C 26.413 12.9947 28.3974 14.9789 28.3974 17.4287C 28.3974 19.8785 26.4129 21.8627 23.9631 21.8627Z"/>
</defs>
</svg>