<svg width="54" height="54" viewBox="0 0 60 60" version="1.1" xmlns="http://www.w3.org/2000/svg" xmlns:xlink="http://www.w3.org/1999/xlink">
<title>Union</title>
<desc>Created using Figma</desc>
<g id="Canvas" transform="translate(-4190 267)">
<g id="Union">
<use xlink:href="#path0_fill" transform="translate(4190.51 -266.957)" fill="#0F1626"/>
</g>
</g>
<defs>
<path id="path0_fill" fill-rule="evenodd" d="M 0 29.8354C 0 13.3846 13.3379 0 29.7314 0C 46.125 0 59.4629 13.3846 59.4629 29.8354L 59.4629 44.272L 59.4629 46.1969L 59.4629 59.6711L 0 59.6711L 0 46.1969L 0 44.272L 0 29.8354ZM 1.91797 46.1967L 1.91797 57.746L 57.5444 57.746L 57.5444 46.1967L 1.91797 46.1967ZM 29.7974 10.5868L 29.665 10.5868L 29.2085 16.9945L 30.2002 16.2487L 29.7974 10.5868ZM 30.4707 20.0456L 30.3633 18.5326L 29.4121 19.2487L 30.4707 20.0456ZM 30.0508 22.1358L 28.9048 21.2726L 28.8433 22.1358L 30.0508 22.1358ZM 32.6089 25.9858L 32.6089 24.0609L 26.8545 24.0609L 26.8545 25.9858L 32.6089 25.9858ZM 30.6904 38.4973L 32.2114 38.4973L 33.1704 37.5349L 30.6904 37.5349L 30.6904 38.4973ZM 27.251 38.4973L 28.772 38.4973L 28.772 37.5349L 26.292 37.5349L 27.251 38.4973ZM 33.9341 44.272L 32.0161 40.4222L 27.4468 40.4222L 25.5288 44.272L 33.9341 44.272ZM 22.7798 42.0294L 23.813 43.4115L 24.6934 41.6454L 22.7798 42.0294ZM 36.6826 42.0286L 34.769 41.6446L 35.6494 43.4106L 36.6826 42.0286ZM 38.6514 44.272L 38.1201 43.3134L 37.4038 44.272L 38.6514 44.272ZM 35.2651 38.1555L 33.9146 39.5107L 36.2783 39.9851L 35.2651 38.1555ZM 31.5239 31.7603L 33.395 31.7603L 33.021 29.5072L 31.5239 31.7603ZM 29.731 30.9875L 31.7759 27.9105L 27.6865 27.9105L 29.731 30.9875ZM 27.9395 31.7603L 26.4424 29.5072L 26.0674 31.7603L 27.9395 31.7603ZM 34.5269 33.6853L 24.936 33.6853L 24.936 35.6102L 34.5269 35.6102L 34.5269 33.6853ZM 25.5479 39.5099L 24.1978 38.1547L 23.1851 39.9845L 25.5479 39.5099ZM 22.0586 44.272L 21.3423 43.3134L 20.811 44.272L 22.0586 44.272ZM 36.4448 36.3232L 40.8452 44.272L 57.5444 44.272L 57.5444 29.8354C 57.5444 14.4453 45.0679 1.9249 29.7314 1.9249C 14.395 1.9249 1.91797 14.4451 1.91797 29.8354L 1.91797 44.272L 18.6182 44.272L 23.0186 36.3232L 23.0186 31.7603L 24.124 31.7603L 24.9365 26.8683L 24.9365 22.136L 26.9204 22.136L 27.8799 8.66187L 28.7725 8.66187L 28.7725 2.88736L 30.6909 2.88736L 30.6909 8.66187L 31.5835 8.66187L 32.1821 17.0746L 32.2251 17.1313L 32.1885 17.1592L 32.5425 22.136L 34.5269 22.136L 34.5269 26.8683L 35.3394 31.7603L 36.4448 31.7603L 36.4448 36.3232ZM 14.3862 55.8211L 14.3862 48.1217L 45.0767 48.1217L 45.0767 55.8211L 14.3862 55.8211Z"/>
</defs>
</svg>