<svg xmlns="http://www.w3.org/2000/svg" width="35" height="35" viewBox="0 0 612 612">
  <path d="M306 0C137.004 0 0 137.004 0 306c0 168.995 137.004 306 306 306 168.995 0 306-137.005 306-306C612 137.004 474.995 0 306 0zm28.152 398.662c-22.616 0-43.897-12.49-51.213-26.678 0 0-12.16 49.294-14.75 58.808-4.34 16.08-12.714 32.13-20.476 44.844-11.07 14.465-23.84 3.728-25.37-9.46-.5-14.687.027-32.073 3.67-47.9 4.035-17.36 26.957-116.587 26.957-116.587s-6.703-13.66-6.703-33.86c0-31.715 18-55.388 40.42-55.388 19.055 0 28.263 14.633 28.263 32.13 0 19.556-12.21 48.82-18.5 75.916-5.256 22.7 11.157 41.2 33.078 41.2 39.698 0 66.46-52.077 66.46-113.75 0-46.9-30.934-81.98-87.21-81.98-63.564 0-103.177 48.403-103.177 102.454 0 18.638 5.37 31.796 13.828 41.95 3.864 4.674 4.42 6.565 3 11.935-1 3.95-3.31 13.41-4.254 17.163-1.39 5.425-5.703 7.345-10.488 5.342-29.294-12.213-42.925-44.955-42.925-81.73 0-60.783 50.213-133.667 149.774-133.667 80.004 0 132.664 59.112 132.664 122.565.027 83.982-45.678 146.684-113.053 146.684z" fill="#EEECE4"/>
</svg>