<svg width="36" height="35" viewBox="0 0 36 35" version="1.1" xmlns="http://www.w3.org/2000/svg" xmlns:xlink="http://www.w3.org/1999/xlink">
<title>&#192;e]</title>
<desc>Created using Figma</desc>
<g id="Canvas" transform="translate(-5324 -603)">
<g id="twitter">
<use xlink:href="#path0_fill" transform="translate(5324.41 603)" fill="#EEECE4"/>
</g>
</g>
<defs>
<path id="path0_fill" fill-rule="evenodd" d="M 17.3782 0C 7.7959 0 0 7.79581 0 17.378C 0 26.9595 7.7959 34.756 17.3782 34.756C 26.9598 34.756 34.7564 26.9595 34.7564 17.378C 34.7564 7.79581 26.9612 0 17.3782 0ZM 25.1306 13.4006C 25.1383 13.5728 25.1425 13.7464 25.1425 13.92C 25.1425 19.2056 21.1203 25.2983 13.7612 25.2983C 11.5023 25.2983 9.39948 24.6382 7.62988 23.5028C 7.94278 23.5399 8.26128 23.5588 8.58398 23.5588C 10.4586 23.5588 12.1827 22.9191 13.5519 21.8467C 11.8019 21.8145 10.3242 20.6581 9.81528 19.0684C 10.0589 19.1146 10.3102 19.1405 10.5671 19.1405C 10.9318 19.1405 11.286 19.0929 11.6213 19.0012C 9.79148 18.6344 8.41318 17.0181 8.41318 15.0792C 8.41318 15.0624 8.41318 15.0449 8.41388 15.0288C 8.95288 15.3277 9.56958 15.5083 10.2248 15.5286C 9.15238 14.8125 8.44608 13.5875 8.44608 12.2001C 8.44608 11.4665 8.64278 10.7791 8.98718 10.1883C 10.9591 12.6089 13.9075 14.2007 17.2311 14.3687C 17.1625 14.0754 17.1282 13.7709 17.1282 13.4566C 17.1282 11.2481 18.9188 9.45685 21.1273 9.45685C 22.2781 9.45685 23.3162 9.94264 24.047 10.7196C 24.9591 10.5404 25.8131 10.2086 26.588 9.74874C 26.287 10.6832 25.6549 11.4665 24.8268 11.9621C 25.6367 11.8655 26.4095 11.6513 27.1242 11.3328C 26.5908 12.1336 25.9125 12.8385 25.1306 13.4006Z"/>
</defs>
</svg>