<?xml version="1.0" encoding="iso-8859-1"?>
<!-- Generator: Adobe Illustrator 19.0.0, SVG Export Plug-In . SVG Version: 6.00 Build 0)  -->
<svg version="1.1" id="Capa_1" xmlns="http://www.w3.org/2000/svg" xmlns:xlink="http://www.w3.org/1999/xlink" x="0px" y="0px"
	 viewBox="0 0 512 512" style="enable-background:new 0 0 512 512;" xml:space="preserve">
<g>
	<g>
		<g>
			<path d="M186.458,95.649c-1.01-0.33-2.05-0.5-3.09-0.5c-4.35,0-8.17,2.78-9.51,6.91c-1.71,5.25,1.17,10.9,6.42,12.61
				c1,0.32,2.04,0.49,3.09,0.49c4.34,0,8.17-2.78,9.51-6.91C194.578,102.999,191.698,97.349,186.458,95.649z"/>
			<path d="M178.28,422.478l45.547-53.831c1.167-1.38,1.939-3.05,2.233-4.833c0.109-0.666,11.004-67.443,14.345-144.16
				c4.546-104.395-6.42-176.826-32.594-215.281c-1.676-2.463-4.363-4.05-7.329-4.33c-2.966-0.276-5.901,0.778-8.009,2.885
				c-24.866,24.866-45.273,59.538-60.654,103.051c-12.138,34.338-21.22,74.304-26.995,118.787
				c-9.795,75.45-6.742,137.012-6.607,139.595c0.137,2.62,1.297,5.081,3.231,6.853l56.609,51.867
				c4.929,25.932,11.228,52.849,19.081,81.559c1.19,4.33,5.15,7.36,9.64,7.36c0.89,0,1.78-0.12,2.64-0.351
				c5.32-1.46,8.47-6.97,7.01-12.29C189.07,472.458,183.043,446.961,178.28,422.478z M118.031,359.281
				c-0.224-6.733-0.556-21.499-0.102-41.456l29.072,26.635c1.326,15.175,3.18,30.616,5.571,46.469L118.031,359.281z
				 M164.459,287.109c0-48.49,5.72-94.64,17.49-141.08c1.36-5.35-1.89-10.8-7.24-12.15c-0.8-0.21-1.63-0.31-2.46-0.31
				c-4.58,0-8.56,3.1-9.68,7.54c-6.13,24.17-10.76,48.86-13.75,73.38c-2.9,23.75-4.36,48.18-4.36,72.62
				c0,9.453,0.217,18.936,0.638,28.482l-26.188-23.993c1.003-19.335,2.769-41.378,5.792-64.586
				c8.229-63.177,27.584-147.407,73.026-200.338c18.726,37.204,26.56,103.031,22.706,191.913
				c-0.448,10.322-1.035,20.46-1.714,30.275l-53.748,63.525C164.631,303.908,164.459,295.488,164.459,287.109z M173.71,396.916
				c-3.103-19.066-5.406-37.568-6.937-55.696l49.12-58.053c-3.569,37.533-7.802,66.066-9.14,74.698L173.71,396.916z"/>
			<path d="M404.338,491.999h-27.56c-5.51,0-9.99,4.49-9.99,10s4.48,10,9.99,10h27.56c5.51,0,10-4.49,10-10
				S409.848,491.999,404.338,491.999z"/>
			<path d="M336.788,491.999c-5.52,0-10,4.49-10,10s4.48,10,10,10c5.51,0,9.99-4.49,9.99-10S342.298,491.999,336.788,491.999z"/>
			<path d="M296.788,491.999h-70c-5.52,0-10,4.49-10,10s4.48,10,10,10h70c5.51,0,9.99-4.49,9.99-10S302.298,491.999,296.788,491.999
				z"/>
		</g>
	</g>
</g>
<g>
</g>
<g>
</g>
<g>
</g>
<g>
</g>
<g>
</g>
<g>
</g>
<g>
</g>
<g>
</g>
<g>
</g>
<g>
</g>
<g>
</g>
<g>
</g>
<g>
</g>
<g>
</g>
<g>
</g>
</svg>
